<mxfile host="app.diagrams.net" modified="2024-01-28T14:03:07.247Z" agent="Mozilla/5.0 (Windows NT 10.0; Win64; x64) AppleWebKit/537.36 (KHTML, like Gecko) Chrome/120.0.0.0 Safari/537.36" version="23.0.2" etag="LOqvZMpyGeG3cquk0Ifs" type="github">
  <diagram name="Trang-1" id="vvwaCdXoa1W6ktlFRVLP">
    <mxGraphModel>
      <root>
        <mxCell id="0" />
        <mxCell id="1" parent="0" />
      </root>
    </mxGraphModel>
  </diagram>
</mxfile>
